<svg width="32" height="32" viewBox="0 0 32 32" fill="none" xmlns="http://www.w3.org/2000/svg">
<path d="M13.5 29C13.0833 28.9793 12.7343 28.8283 12.453 28.547C12.1717 28.2657 12.031 27.9167 12.031 27.5C12.031 27.0833 12.1717 26.7343 12.453 26.453C12.7343 26.1717 13.0833 26.031 13.5 26.031C13.9167 26.031 14.2657 26.1717 14.547 26.453C14.8283 26.7343 14.969 27.0833 14.969 27.5C14.969 27.9167 14.8283 28.2657 14.547 28.547C14.2657 28.8283 13.9167 28.9793 13.5 29ZM23.5 29C23.0833 28.9793 22.7343 28.8283 22.453 28.547C22.1717 28.2657 22.031 27.9167 22.031 27.5C22.031 27.0833 22.1717 26.7343 22.453 26.453C22.7343 26.1717 23.0833 26.031 23.5 26.031C23.9167 26.031 24.2657 26.1717 24.547 26.453C24.8283 26.7343 24.969 27.0833 24.969 27.5C24.969 27.9167 24.8283 28.2657 24.547 28.547C24.2657 28.8283 23.9167 28.9793 23.5 29ZM3 4C2.708 4 2.46833 3.90633 2.281 3.719C2.09367 3.53167 2 3.292 2 3C2 2.708 2.09367 2.46833 2.281 2.281C2.46833 2.09367 2.708 2 3 2H8C8.25 2 8.46367 2.073 8.641 2.219C8.81833 2.365 8.92767 2.563 8.969 2.813L10.032 8.001H29.001C29.3137 8.001 29.569 8.126 29.767 8.376C29.965 8.626 30.0327 8.90733 29.97 9.22L26.97 23.22C26.928 23.4493 26.8187 23.637 26.642 23.783C26.4653 23.929 26.2517 24.002 26.001 24.002H12.001C11.751 24.002 11.5373 23.929 11.36 23.783C11.1827 23.637 11.0733 23.439 11.032 23.189L7.188 4.001H3V4ZM12.813 22H25.188L27.751 10H10.407L12.813 22Z" fill="#303133"/>
</svg>
